<?xml version="1.0" standalone="no"?>
<!DOCTYPE svg PUBLIC "-//W3C//DTD SVG 20010904//EN"
 "http://www.w3.org/TR/2001/REC-SVG-20010904/DTD/svg10.dtd">
<svg version="1.0" xmlns="http://www.w3.org/2000/svg"
 width="225.000000pt" height="225.000000pt" viewBox="0 0 225.000000 225.000000"
 preserveAspectRatio="xMidYMid meet">

<g transform="translate(0.000000,225.000000) scale(0.100000,-0.100000)"
fill="#000000" stroke="none">
<path d="M645 1835 c-27 -27 -32 -68 -13 -109 9 -21 14 -23 25 -14 11 9 13 8
11 -3 -5 -24 64 -23 95 1 36 29 38 96 4 128 -33 31 -90 30 -122 -3z m78 -56
c-17 -17 -36 -28 -42 -25 -15 10 -14 26 2 20 7 -2 22 4 32 16 10 11 23 20 29
20 6 0 -3 -14 -21 -31z"/>
<path d="M882 1820 c-12 -5 -27 -21 -32 -35 -15 -38 -13 -1127 1 -1158 20 -44
41 -47 378 -47 310 0 319 1 345 21 19 15 24 25 17 32 -7 7 -16 5 -29 -6 -17
-15 -53 -17 -339 -17 -297 0 -321 1 -336 18 -15 17 -17 72 -17 580 0 496 2
562 16 576 12 12 37 16 104 16 85 0 88 -1 94 -25 l6 -25 135 0 135 0 6 25 c6
24 9 25 94 25 67 0 92 -4 104 -16 14 -13 16 -65 16 -416 0 -315 3 -399 13
-395 9 3 12 94 12 411 l0 408 -24 19 c-22 18 -43 19 -350 18 -179 0 -336 -4
-349 -9z m269 -33 c-1 -12 -15 -9 -19 4 -3 6 1 10 8 8 6 -3 11 -8 11 -12z
m159 -1 c0 -11 -16 -14 -62 -14 -67 0 -82 4 -73 19 4 5 35 9 71 9 48 0 64 -3
64 -14z"/>
<path d="M1845 1775 c-14 -13 -25 -35 -25 -49 0 -29 15 -43 24 -21 7 20 40 19
60 -1 9 -8 20 -13 25 -9 15 9 10 65 -6 65 -7 0 -13 9 -13 20 0 28 -35 26 -65
-5z"/>
<path d="M367 1738 c-32 -33 -43 -92 -22 -124 20 -31 35 -31 35 2 0 14 4 23
10 19 6 -4 10 5 10 19 0 24 4 26 43 26 23 0 48 4 55 9 20 12 11 54 -13 58 -11
1 -37 6 -57 9 -30 5 -41 2 -61 -18z"/>
<path d="M1193 1653 c-39 -7 -73 -59 -73 -109 0 -32 4 -44 15 -44 11 0 15 11
15 43 0 53 25 80 72 80 41 0 78 -41 78 -89 0 -24 5 -34 15 -34 21 0 20 52 -2
97 -15 32 -65 66 -90 62 -4 -1 -18 -4 -30 -6z"/>
<path d="M1905 1530 c3 -5 8 -10 11 -10 2 0 4 5 4 10 0 6 -5 10 -11 10 -5 0
-7 -4 -4 -10z"/>
<path d="M1191 1416 c-9 -11 -9 -20 -2 -35 6 -11 11 -32 11 -46 0 -22 4 -26
23 -23 16 2 22 10 23 28 0 14 4 33 8 43 17 36 -38 64 -63 33z"/>
<path d="M330 1405 c0 -20 -32 -85 -42 -85 -20 0 -5 -29 35 -65 l42 -40 -39
42 -38 41 23 34 c22 30 38 88 25 88 -4 0 -6 -7 -6 -15z"/>
<path d="M552 1345 c0 -16 2 -22 5 -12 2 9 2 23 0 30 -3 6 -5 -1 -5 -18z"/>
<path d="M230 1351 c0 -6 4 -13 10 -16 6 -3 7 1 4 9 -7 18 -14 21 -14 7z"/>
<path d="M478 1223 c17 -2 32 -6 32 -9 0 -3 -9 -23 -20 -44 -11 -22 -18 -40
-15 -40 10 0 46 81 40 90 -3 6 -21 9 -38 8 l-32 -1 33 -4z"/>
<path d="M382 1204 c10 -10 20 -16 22 -13 3 3 -5 11 -17 18 -21 13 -21 12 -5
-5z"/>
<path d="M341 1167 c2 -1 13 -9 24 -17 19 -14 19 -14 6 3 -7 9 -18 17 -24 17
-6 0 -8 -1 -6 -3z"/>
<path d="M403 1103 c15 -2 37 -2 50 0 12 2 0 4 -28 4 -27 0 -38 -2 -22 -4z"/>
<path d="M290 1095 c-4 0 -76 -502 -73 -507 2 -5 21 -8 42 -8 l38 0 53 178
c29 97 56 184 60 192 10 18 19 -17 56 -205 15 -77 31 -146 37 -152 5 -7 25
-13 43 -13 34 0 34 0 34 48 0 26 -7 137 -15 247 -8 110 -15 205 -15 210 0 7
-46 11 -130 10 -71 0 -130 0 -130 0z"/>
<path d="M1680 825 c-23 -24 -40 -33 -52 -29 -22 7 -24 -9 -3 -26 14 -11 23
-7 60 30 25 24 45 48 45 52 0 16 -17 7 -50 -27z"/>
<path d="M215 540 c-4 -6 17 -10 55 -10 38 0 59 4 55 10 -3 6 -28 10 -55 10
-27 0 -52 -4 -55 -10z"/>
<path d="M505 540 c-4 -6 17 -10 57 -9 44 0 57 3 43 9 -28 12 -93 12 -100 0z"/>
<path d="M1171 368 c-1 -21 4 -28 17 -28 11 0 13 3 6 8 -7 4 -14 16 -17 27 -4
15 -5 14 -6 -7z"/>
<path d="M921 364 c0 -11 3 -14 6 -6 3 7 2 16 -1 19 -3 4 -6 -2 -5 -13z"/>
<path d="M1302 355 c0 -16 2 -22 5 -12 2 9 2 23 0 30 -3 6 -5 -1 -5 -18z"/>
<path d="M1321 364 c0 -11 3 -14 6 -6 3 7 2 16 -1 19 -3 4 -6 -2 -5 -13z"/>
<path d="M977 349 c7 -7 15 -10 18 -7 3 3 -2 9 -12 12 -14 6 -15 5 -6 -5z"/>
</g>
</svg>
